STARTFONT 2.1
COMMENT converted Oberon font (using FontToBDF by R.Crelier 10.1.91)
FONT Syntax20i.Scn.Fnt
SIZE 20 75 75
FONTBOUNDINGBOX  19 23 0 -6
STARTPROPERTIES 3
FONT_ASCENT 17
FONT_DESCENT 6
DEFAULT_CHAR 0
ENDPROPERTIES
CHARS 121
STARTCHAR c0
ENCODING -1 0
SWIDTH 0 0
DWIDTH 0 0
BBX 0 0 0 0
BITMAP
ENDCHAR
STARTCHAR c9
ENCODING -1 9
SWIDTH 516 0
DWIDTH 16 0
BBX 0 0 0 0
BITMAP
ENDCHAR
STARTCHAR c32
ENCODING -1 32
SWIDTH 129 0
DWIDTH 4 0
BBX 0 0 0 0
BITMAP
ENDCHAR
STARTCHAR c33
ENCODING -1 33
SWIDTH 193 0
DWIDTH 6 0
BBX 5 15 0 0
BITMAP
18
18
18
10
30
30
20
20
60
40
40
00
00
C0
C0
ENDCHAR
STARTCHAR c34
ENCODING -1 34
SWIDTH 258 0
DWIDTH 8 0
BBX 6 5 2 11
BITMAP
6C
6C
48
90
90
ENDCHAR
STARTCHAR c35
ENCODING -1 35
SWIDTH 387 0
DWIDTH 12 0
BBX 11 15 0 0
BITMAP
0440
0440
0CC0
0880
0880
7FE0
1100
1100
1100
FFC0
2200
2200
6600
4400
4400
ENDCHAR
STARTCHAR c36
ENCODING -1 36
SWIDTH 322 0
DWIDTH 10 0
BBX 10 19 0 -2
BITMAP
0100
0100
07C0
1A00
3200
3200
3400
3400
1800
0C00
0E00
0B00
0B00
1300
1300
1600
F800
2000
2000
ENDCHAR
STARTCHAR c37
ENCODING -1 37
SWIDTH 451 0
DWIDTH 14 0
BBX 13 15 1 0
BITMAP
1C08
2218
6210
4220
4660
4580
3900
0200
06E0
1910
1310
2210
6230
8220
81C0
ENDCHAR
STARTCHAR c38
ENCODING -1 38
SWIDTH 387 0
DWIDTH 12 0
BBX 12 15 0 0
BITMAP
0380
0440
0C40
0C80
0700
0600
0B30
1B10
21B0
61A0
40C0
C0C0
C160
C660
7830
ENDCHAR
STARTCHAR c39
ENCODING -1 39
SWIDTH 161 0
DWIDTH 5 0
BBX 3 5 2 11
BITMAP
60
60
40
80
80
ENDCHAR
STARTCHAR c40
ENCODING -1 40
SWIDTH 258 0
DWIDTH 8 0
BBX 7 20 1 -4
BITMAP
02
04
08
10
20
20
40
40
80
80
80
80
80
80
80
80
80
40
40
20
ENDCHAR
STARTCHAR c41
ENCODING -1 41
SWIDTH 258 0
DWIDTH 8 0
BBX 7 20 0 -4
BITMAP
08
04
04
02
02
02
02
02
02
02
02
02
04
04
08
08
10
20
40
80
ENDCHAR
STARTCHAR c42
ENCODING -1 42
SWIDTH 387 0
DWIDTH 12 0
BBX 11 11 0 0
BITMAP
1040
1040
1980
0900
0E00
FFE0
0E00
1200
3300
4100
4100
ENDCHAR
STARTCHAR c43
ENCODING -1 43
SWIDTH 387 0
DWIDTH 12 0
BBX 11 11 0 0
BITMAP
0300
0200
0200
0600
0400
FFE0
0400
0C00
0800
0800
1800
ENDCHAR
STARTCHAR c44
ENCODING -1 44
SWIDTH 161 0
DWIDTH 5 0
BBX 3 6 0 -4
BITMAP
60
60
40
C0
80
80
ENDCHAR
STARTCHAR c45
ENCODING -1 45
SWIDTH 387 0
DWIDTH 12 0
BBX 11 1 0 5
BITMAP
FFE0
ENDCHAR
STARTCHAR c46
ENCODING -1 46
SWIDTH 161 0
DWIDTH 5 0
BBX 2 2 1 0
BITMAP
C0
C0
ENDCHAR
STARTCHAR c47
ENCODING -1 47
SWIDTH 322 0
DWIDTH 10 0
BBX 9 15 1 0
BITMAP
0080
0180
0100
0300
0200
0600
0C00
0800
1800
3000
2000
6000
4000
C000
8000
ENDCHAR
STARTCHAR c48
ENCODING -1 48
SWIDTH 354 0
DWIDTH 11 0
BBX 10 15 0 0
BITMAP
0780
08C0
10C0
30C0
20C0
60C0
6080
4080
4180
C180
C100
C300
C200
E400
7800
ENDCHAR
STARTCHAR c49
ENCODING -1 49
SWIDTH 354 0
DWIDTH 11 0
BBX 7 15 1 0
BITMAP
06
1E
66
C4
0C
0C
0C
08
08
18
18
18
10
30
30
ENDCHAR
STARTCHAR c50
ENCODING -1 50
SWIDTH 354 0
DWIDTH 11 0
BBX 10 15 0 0
BITMAP
0F80
30C0
00C0
00C0
00C0
0180
0180
0300
0600
0C00
1800
3000
6000
C000
FF80
ENDCHAR
STARTCHAR c51
ENCODING -1 51
SWIDTH 354 0
DWIDTH 11 0
BBX 9 15 0 0
BITMAP
0F00
3180
0180
0180
0100
0300
0C00
7800
0600
0300
0300
0300
0600
1C00
F000
ENDCHAR
STARTCHAR c52
ENCODING -1 52
SWIDTH 354 0
DWIDTH 11 0
BBX 10 15 0 0
BITMAP
0180
0380
0500
0900
1B00
2300
6200
8200
8600
FFC0
0600
0400
0C00
0C00
0C00
ENDCHAR
STARTCHAR c53
ENCODING -1 53
SWIDTH 354 0
DWIDTH 11 0
BBX 10 15 0 0
BITMAP
1FC0
1800
1000
3000
3000
2000
7E00
4700
0180
0180
0180
0100
0300
0E00
F800
ENDCHAR
STARTCHAR c54
ENCODING -1 54
SWIDTH 354 0
DWIDTH 11 0
BBX 10 15 0 0
BITMAP
01C0
0600
1800
1000
6000
6000
4700
D980
D180
E180
C180
C100
C200
C600
7800
ENDCHAR
STARTCHAR c55
ENCODING -1 55
SWIDTH 354 0
DWIDTH 11 0
BBX 11 15 0 0
BITMAP
3FE0
0060
00C0
0180
0180
0300
0600
0600
0C00
1800
1800
3000
6000
6000
C000
ENDCHAR
STARTCHAR c56
ENCODING -1 56
SWIDTH 354 0
DWIDTH 11 0
BBX 10 15 0 0
BITMAP
0F80
18C0
30C0
30C0
3080
3900
1C00
0E00
1700
2380
4180
C180
C180
C300
7E00
ENDCHAR
STARTCHAR c57
ENCODING -1 57
SWIDTH 354 0
DWIDTH 11 0
BBX 10 15 0 0
BITMAP
0780
18C0
10C0
20C0
60C0
61C0
62C0
66C0
3880
0180
0180
0200
0600
1800
E000
ENDCHAR
STARTCHAR c58
ENCODING -1 58
SWIDTH 193 0
DWIDTH 6 0
BBX 4 10 1 0
BITMAP
30
30
00
00
00
00
00
00
C0
C0
ENDCHAR
STARTCHAR c59
ENCODING -1 59
SWIDTH 193 0
DWIDTH 6 0
BBX 5 14 0 -4
BITMAP
18
18
00
00
00
00
00
00
60
60
40
C0
80
80
ENDCHAR
STARTCHAR c60
ENCODING -1 60
SWIDTH 387 0
DWIDTH 12 0
BBX 12 11 0 0
BITMAP
0070
01C0
0700
1C00
7000
C000
3000
1C00
0600
0380
00C0
ENDCHAR
STARTCHAR c61
ENCODING -1 61
SWIDTH 387 0
DWIDTH 12 0
BBX 11 4 0 4
BITMAP
7FE0
0000
0000
FFC0
ENDCHAR
STARTCHAR c62
ENCODING -1 62
SWIDTH 387 0
DWIDTH 12 0
BBX 12 11 0 0
BITMAP
3000
1C00
0600
0380
00C0
0030
00E0
0380
0E00
3800
E000
ENDCHAR
STARTCHAR c63
ENCODING -1 63
SWIDTH 322 0
DWIDTH 10 0
BBX 8 15 2 0
BITMAP
1E
63
03
03
02
06
0C
18
30
60
60
00
00
C0
C0
ENDCHAR
STARTCHAR c64
ENCODING -1 64
SWIDTH 548 0
DWIDTH 17 0
BBX 16 16 0 -1
BITMAP
03F0
0E0C
1806
30F2
2333
6623
6463
CC62
CC66
CCC6
CD44
CEC8
C0D8
C0E0
6000
3E00
ENDCHAR
STARTCHAR c65
ENCODING -1 65
SWIDTH 354 0
DWIDTH 11 0
BBX 9 15 0 0
BITMAP
0180
0380
0380
0580
0580
0980
1980
1180
3180
3F80
6180
4180
C180
8180
8180
ENDCHAR
STARTCHAR c66
ENCODING -1 66
SWIDTH 354 0
DWIDTH 11 0
BBX 10 15 0 0
BITMAP
1F80
18C0
18C0
10C0
3080
3180
2300
3C00
6300
6180
6180
4180
C300
C600
F800
ENDCHAR
STARTCHAR c67
ENCODING -1 67
SWIDTH 354 0
DWIDTH 11 0
BBX 11 15 0 0
BITMAP
01E0
0600
1800
1000
2000
6000
6000
4000
C000
C000
C000
C000
4000
6180
1E00
ENDCHAR
STARTCHAR c68
ENCODING -1 68
SWIDTH 451 0
DWIDTH 14 0
BBX 13 15 0 0
BITMAP
1FC0
1830
1810
1018
3018
3018
3018
2010
6010
6030
6020
4040
C0C0
C300
FC00
ENDCHAR
STARTCHAR c69
ENCODING -1 69
SWIDTH 322 0
DWIDTH 10 0
BBX 10 15 0 0
BITMAP
1FC0
1800
1800
1000
3000
3000
2000
3F00
6000
6000
6000
4000
C000
C000
FF00
ENDCHAR
STARTCHAR c70
ENCODING -1 70
SWIDTH 290 0
DWIDTH 9 0
BBX 9 15 0 0
BITMAP
1F80
1800
1800
1000
3000
3000
2000
3F00
6000
6000
6000
4000
C000
C000
C000
ENDCHAR
STARTCHAR c71
ENCODING -1 71
SWIDTH 387 0
DWIDTH 12 0
BBX 11 15 0 0
BITMAP
01E0
0600
1800
1000
2000
6000
6000
4060
C060
C060
C040
C0C0
40C0
61C0
1E00
ENDCHAR
STARTCHAR c72
ENCODING -1 72
SWIDTH 451 0
DWIDTH 14 0
BBX 13 15 0 0
BITMAP
1818
1818
1818
1010
3030
3030
2030
3FE0
6060
6060
6060
4040
C0C0
C0C0
C0C0
ENDCHAR
STARTCHAR c73
ENCODING -1 73
SWIDTH 193 0
DWIDTH 6 0
BBX 5 15 0 0
BITMAP
18
18
18
10
30
30
30
20
60
60
60
40
C0
C0
C0
ENDCHAR
STARTCHAR c74
ENCODING -1 74
SWIDTH 193 0
DWIDTH 6 0
BBX 5 15 0 0
BITMAP
18
18
18
18
10
30
30
30
30
20
60
60
60
40
C0
ENDCHAR
STARTCHAR c75
ENCODING -1 75
SWIDTH 354 0
DWIDTH 11 0
BBX 11 15 0 0
BITMAP
1820
1860
1880
1100
3200
3400
3800
2C00
6C00
6600
6600
4300
C300
C180
C180
ENDCHAR
STARTCHAR c76
ENCODING -1 76
SWIDTH 258 0
DWIDTH 8 0
BBX 7 15 0 0
BITMAP
18
18
18
10
30
30
30
20
60
60
60
40
C0
C0
FE
ENDCHAR
STARTCHAR c77
ENCODING -1 77
SWIDTH 548 0
DWIDTH 17 0
BBX 15 15 0 0
BITMAP
0306
0306
0306
070E
070E
0B16
1B36
1326
3366
2346
63C6
4386
C386
8306
8306
ENDCHAR
STARTCHAR c78
ENCODING -1 78
SWIDTH 483 0
DWIDTH 15 0
BBX 14 15 0 0
BITMAP
180C
180C
1C08
1C08
3618
3618
2310
2310
2310
61B0
61B0
40E0
40E0
C060
C060
ENDCHAR
STARTCHAR c79
ENCODING -1 79
SWIDTH 483 0
DWIDTH 15 0
BBX 14 15 0 0
BITMAP
01E0
0618
1808
100C
200C
600C
600C
4008
C018
C018
C010
C020
4060
6180
1E00
ENDCHAR
STARTCHAR c80
ENCODING -1 80
SWIDTH 322 0
DWIDTH 10 0
BBX 10 15 0 0
BITMAP
1F80
18C0
18C0
10C0
3080
3180
2300
3C00
6000
6000
6000
4000
C000
C000
C000
ENDCHAR
STARTCHAR c81
ENCODING -1 81
SWIDTH 483 0
DWIDTH 15 0
BBX 14 18 0 -3
BITMAP
01E0
0618
1808
100C
200C
600C
600C
4008
C018
C018
C010
C020
4060
6180
1E00
0380
01E0
0070
ENDCHAR
STARTCHAR c82
ENCODING -1 82
SWIDTH 354 0
DWIDTH 11 0
BBX 10 15 0 0
BITMAP
1F80
18C0
18C0
10C0
3080
3180
2300
3C00
6600
6600
6300
4300
C180
C180
C180
ENDCHAR
STARTCHAR c83
ENCODING -1 83
SWIDTH 290 0
DWIDTH 9 0
BBX 8 15 0 0
BITMAP
0F
30
60
60
60
30
30
18
0C
0C
06
06
06
0C
F0
ENDCHAR
STARTCHAR c84
ENCODING -1 84
SWIDTH 290 0
DWIDTH 9 0
BBX 9 15 0 0
BITMAP
FF80
0C00
0C00
0800
1800
1800
1800
1000
3000
3000
3000
2000
6000
6000
6000
ENDCHAR
STARTCHAR c85
ENCODING -1 85
SWIDTH 419 0
DWIDTH 13 0
BBX 13 15 0 0
BITMAP
3018
3010
3010
2030
6030
6020
6020
6060
4060
C040
C040
C0C0
C080
6180
3E00
ENDCHAR
STARTCHAR c86
ENCODING -1 86
SWIDTH 354 0
DWIDTH 11 0
BBX 9 15 2 0
BITMAP
C080
C080
C180
C100
C300
C200
C600
C400
CC00
C800
D000
D000
E000
E000
C000
ENDCHAR
STARTCHAR c87
ENCODING -1 87
SWIDTH 612 0
DWIDTH 19 0
BBX 17 15 2 0
BITMAP
C0C080
C0C080
C1C180
C1C100
C3C300
C2C200
C6C600
C4C400
CCCC00
C8C800
D0D000
D0D000
E0E000
E0E000
C0C000
ENDCHAR
STARTCHAR c88
ENCODING -1 88
SWIDTH 354 0
DWIDTH 11 0
BBX 11 15 0 0
BITMAP
3060
3040
3080
1880
1B00
1A00
0C00
0C00
0C00
1600
3600
4600
4300
8300
8300
ENDCHAR
STARTCHAR c89
ENCODING -1 89
SWIDTH 322 0
DWIDTH 10 0
BBX 9 15 1 0
BITMAP
C080
C180
C100
6300
6200
6400
3800
3000
3000
3000
2000
6000
6000
6000
6000
ENDCHAR
STARTCHAR c90
ENCODING -1 90
SWIDTH 387 0
DWIDTH 12 0
BBX 12 15 0 0
BITMAP
1FF0
0030
0060
00C0
0180
0300
0300
0600
0C00
1800
1800
3000
6000
C000
FFC0
ENDCHAR
STARTCHAR c91
ENCODING -1 91
SWIDTH 258 0
DWIDTH 8 0
BBX 7 20 0 -4
BITMAP
0E
08
08
08
18
10
10
10
30
20
20
20
60
40
40
40
C0
80
80
E0
ENDCHAR
STARTCHAR c92
ENCODING -1 92
SWIDTH 322 0
DWIDTH 10 0
BBX 5 15 2 0
BITMAP
C0
40
40
40
60
60
20
20
20
30
30
10
10
10
18
ENDCHAR
STARTCHAR c93
ENCODING -1 93
SWIDTH 258 0
DWIDTH 8 0
BBX 7 20 0 -4
BITMAP
0E
02
02
06
04
04
04
0C
08
08
08
18
10
10
10
30
20
20
20
E0
ENDCHAR
STARTCHAR c94
ENCODING -1 94
SWIDTH 354 0
DWIDTH 11 0
BBX 9 12 1 0
BITMAP
0200
0F00
1500
6480
8C80
0800
0800
0800
1800
1000
1000
3000
ENDCHAR
STARTCHAR c95
ENCODING -1 95
SWIDTH 193 0
DWIDTH 6 0
BBX 6 1 0 5
BITMAP
FC
ENDCHAR
STARTCHAR c96
ENCODING -1 96
SWIDTH 322 0
DWIDTH 10 0
BBX 2 4 5 13
BITMAP
C0
C0
40
40
ENDCHAR
STARTCHAR c97
ENCODING -1 97
SWIDTH 322 0
DWIDTH 10 0
BBX 9 11 0 0
BITMAP
0F80
3980
2180
0100
0300
1F00
7300
4200
C600
CA80
F300
ENDCHAR
STARTCHAR c98
ENCODING -1 98
SWIDTH 354 0
DWIDTH 11 0
BBX 10 17 0 0
BITMAP
1800
1800
1800
1000
3000
3000
3380
24C0
28C0
30C0
60C0
6080
6180
4100
C300
C400
F800
ENDCHAR
STARTCHAR c99
ENCODING -1 99
SWIDTH 258 0
DWIDTH 8 0
BBX 8 11 0 0
BITMAP
07
18
20
60
40
C0
C0
C0
C0
C6
78
ENDCHAR
STARTCHAR c100
ENCODING -1 100
SWIDTH 354 0
DWIDTH 11 0
BBX 11 17 0 0
BITMAP
0060
0060
0060
0040
00C0
00C0
07C0
08C0
30C0
2080
6180
4180
C180
C300
C500
C900
7300
ENDCHAR
STARTCHAR c101
ENCODING -1 101
SWIDTH 290 0
DWIDTH 9 0
BBX 8 11 0 0
BITMAP
07
1B
23
62
44
F8
C0
C0
C0
C6
78
ENDCHAR
STARTCHAR c102
ENCODING -1 102
SWIDTH 193 0
DWIDTH 6 0
BBX 6 22 0 -5
BITMAP
0C
18
18
18
18
18
FC
18
10
30
30
30
20
60
60
60
60
40
C0
C0
C0
80
ENDCHAR
STARTCHAR c103
ENCODING -1 103
SWIDTH 322 0
DWIDTH 10 0
BBX 10 16 0 -5
BITMAP
07C0
1980
3180
3180
3300
1C00
6000
C000
7000
1E00
1380
6180
C180
C100
C300
7C00
ENDCHAR
STARTCHAR c104
ENCODING -1 104
SWIDTH 354 0
DWIDTH 11 0
BBX 10 17 0 0
BITMAP
1800
1800
1800
1800
1000
3000
31C0
32C0
24C0
28C0
7080
6180
6180
4180
C100
C300
C300
ENDCHAR
STARTCHAR c105
ENCODING -1 105
SWIDTH 161 0
DWIDTH 5 0
BBX 4 15 0 0
BITMAP
30
30
00
00
30
30
30
20
60
60
60
40
C0
C0
C0
ENDCHAR
STARTCHAR c106
ENCODING -1 106
SWIDTH 161 0
DWIDTH 5 0
BBX 4 21 0 -6
BITMAP
30
30
00
00
30
30
30
20
60
60
60
40
C0
C0
C0
C0
C0
80
80
80
80
ENDCHAR
STARTCHAR c107
ENCODING -1 107
SWIDTH 290 0
DWIDTH 9 0
BBX 9 17 0 0
BITMAP
1800
1800
1800
1800
1000
3000
3080
3180
2200
6400
6800
7000
7800
5800
CC00
C600
C600
ENDCHAR
STARTCHAR c108
ENCODING -1 108
SWIDTH 161 0
DWIDTH 5 0
BBX 5 17 0 0
BITMAP
18
18
18
18
10
30
30
30
20
60
60
60
60
40
C0
C0
C0
ENDCHAR
STARTCHAR c109
ENCODING -1 109
SWIDTH 548 0
DWIDTH 17 0
BBX 16 11 0 0
BITMAP
31C7
32CB
24D3
28E3
3082
6186
6186
6186
4104
C30C
C30C
ENDCHAR
STARTCHAR c110
ENCODING -1 110
SWIDTH 354 0
DWIDTH 11 0
BBX 10 11 0 0
BITMAP
31C0
32C0
24C0
28C0
3080
6180
6180
6180
4100
C300
C300
ENDCHAR
STARTCHAR c111
ENCODING -1 111
SWIDTH 322 0
DWIDTH 10 0
BBX 9 11 0 0
BITMAP
0F00
1180
2180
6180
4180
C180
C100
C300
C200
C400
7800
ENDCHAR
STARTCHAR c112
ENCODING -1 112
SWIDTH 354 0
DWIDTH 11 0
BBX 10 17 0 -6
BITMAP
3380
24C0
28C0
30C0
60C0
6080
6180
6100
4300
C400
F800
C000
C000
C000
C000
C000
C000
ENDCHAR
STARTCHAR c113
ENCODING -1 113
SWIDTH 354 0
DWIDTH 11 0
BBX 10 17 0 -6
BITMAP
07C0
08C0
30C0
2080
6180
4180
C180
C300
C500
C900
7300
0300
0300
0200
0600
0600
0600
ENDCHAR
STARTCHAR c114
ENCODING -1 114
SWIDTH 225 0
DWIDTH 7 0
BBX 7 11 0 0
BITMAP
32
36
28
30
70
60
60
40
C0
C0
C0
ENDCHAR
STARTCHAR c115
ENCODING -1 115
SWIDTH 225 0
DWIDTH 7 0
BBX 6 11 0 0
BITMAP
1C
20
60
60
60
30
18
18
18
10
E0
ENDCHAR
STARTCHAR c116
ENCODING -1 116
SWIDTH 225 0
DWIDTH 7 0
BBX 7 15 0 0
BITMAP
18
18
18
10
FE
30
30
20
60
60
60
40
C4
C8
F0
ENDCHAR
STARTCHAR c117
ENCODING -1 117
SWIDTH 354 0
DWIDTH 11 0
BBX 10 11 0 0
BITMAP
30C0
30C0
2080
6180
6180
6180
4300
C500
C900
D300
E300
ENDCHAR
STARTCHAR c118
ENCODING -1 118
SWIDTH 290 0
DWIDTH 9 0
BBX 8 11 1 0
BITMAP
C3
C3
C6
84
CC
88
90
B0
A0
C0
C0
ENDCHAR
STARTCHAR c119
ENCODING -1 119
SWIDTH 516 0
DWIDTH 16 0
BBX 14 11 2 0
BITMAP
C30C
C30C
C718
8610
CB30
8A20
9240
B2C0
A280
C300
C300
ENDCHAR
STARTCHAR c120
ENCODING -1 120
SWIDTH 290 0
DWIDTH 9 0
BBX 8 11 0 0
BITMAP
61
61
32
34
14
18
28
2C
4C
C6
86
ENDCHAR
STARTCHAR c121
ENCODING -1 121
SWIDTH 290 0
DWIDTH 9 0
BBX 9 17 0 -6
BITMAP
6180
6180
6300
4200
6600
4400
4800
5800
5000
6000
6000
6000
4000
4000
C000
8000
8000
ENDCHAR
STARTCHAR c122
ENCODING -1 122
SWIDTH 290 0
DWIDTH 9 0
BBX 8 11 0 0
BITMAP
3F
03
06
0C
0C
18
30
30
60
C0
FE
ENDCHAR
STARTCHAR c123
ENCODING -1 123
SWIDTH 258 0
DWIDTH 8 0
BBX 7 20 0 -4
BITMAP
06
08
08
18
10
10
10
10
20
C0
20
20
20
20
60
40
40
40
40
30
ENDCHAR
STARTCHAR c124
ENCODING -1 124
SWIDTH 290 0
DWIDTH 9 0
BBX 6 19 1 -4
BITMAP
0C
08
08
08
18
10
10
10
10
30
20
20
20
20
60
40
40
40
C0
ENDCHAR
STARTCHAR c125
ENCODING -1 125
SWIDTH 258 0
DWIDTH 8 0
BBX 7 20 0 -4
BITMAP
18
04
04
04
04
0C
08
08
08
08
06
08
10
10
10
10
30
20
20
C0
ENDCHAR
STARTCHAR c126
ENCODING -1 126
SWIDTH 419 0
DWIDTH 13 0
BBX 11 4 1 4
BITMAP
3820
4C20
8640
8380
ENDCHAR
STARTCHAR c128
ENCODING -1 128
SWIDTH 354 0
DWIDTH 11 0
BBX 11 17 0 0
BITMAP
0660
0000
0180
0380
0380
0580
0580
0980
1980
1180
3180
3F80
6180
4180
C180
8180
8180
ENDCHAR
STARTCHAR c129
ENCODING -1 129
SWIDTH 483 0
DWIDTH 15 0
BBX 14 17 0 0
BITMAP
060C
0000
01E0
0618
1808
100C
200C
600C
600C
4008
C018
C018
C010
C020
4060
6180
1E00
ENDCHAR
STARTCHAR c130
ENCODING -1 130
SWIDTH 419 0
DWIDTH 13 0
BBX 13 17 0 0
BITMAP
0660
0000
3018
3010
3010
2030
6030
6020
6020
6060
4060
C040
C040
C0C0
C080
6180
3E00
ENDCHAR
STARTCHAR c131
ENCODING -1 131
SWIDTH 322 0
DWIDTH 10 0
BBX 10 15 0 0
BITMAP
0CC0
0CC0
0000
0000
0F80
3980
2180
0100
0300
1F00
7300
4200
C600
CA80
F300
ENDCHAR
STARTCHAR c132
ENCODING -1 132
SWIDTH 322 0
DWIDTH 10 0
BBX 10 15 0 0
BITMAP
0CC0
0CC0
0000
0000
0F00
1180
2180
6180
4180
C180
C100
C300
C200
C400
7800
ENDCHAR
STARTCHAR c133
ENCODING -1 133
SWIDTH 354 0
DWIDTH 11 0
BBX 10 15 0 0
BITMAP
0CC0
0CC0
0000
0000
30C0
30C0
2080
6180
6180
6180
4300
C500
C900
D300
E300
ENDCHAR
STARTCHAR c134
ENCODING -1 134
SWIDTH 322 0
DWIDTH 10 0
BBX 10 17 0 0
BITMAP
00C0
01C0
0640
0840
0000
0000
0F80
3980
2180
0100
0300
1F00
7300
4200
C600
CA80
F300
ENDCHAR
STARTCHAR c135
ENCODING -1 135
SWIDTH 290 0
DWIDTH 9 0
BBX 9 17 0 0
BITMAP
0180
0380
0C80
1080
0000
0000
0700
1B00
2300
6200
4400
F800
C000
C000
C000
C600
7800
ENDCHAR
STARTCHAR c136
ENCODING -1 136
SWIDTH 161 0
DWIDTH 5 0
BBX 5 17 0 0
BITMAP
08
38
48
88
00
00
30
30
30
20
60
60
60
40
C0
C0
C0
ENDCHAR
STARTCHAR c137
ENCODING -1 137
SWIDTH 322 0
DWIDTH 10 0
BBX 10 17 0 0
BITMAP
00C0
01C0
0640
0840
0000
0000
0F00
1180
2180
6180
4180
C180
C100
C300
C200
C400
7800
ENDCHAR
STARTCHAR c138
ENCODING -1 138
SWIDTH 354 0
DWIDTH 11 0
BBX 10 17 0 0
BITMAP
00C0
01C0
0640
0840
0000
0000
30C0
30C0
2080
6180
6180
6180
4300
C500
C900
D300
E300
ENDCHAR
STARTCHAR c139
ENCODING -1 139
SWIDTH 322 0
DWIDTH 10 0
BBX 9 17 0 0
BITMAP
0600
0600
0200
0200
0000
0000
0F80
3980
2180
0100
0300
1F00
7300
4200
C600
CA80
F300
ENDCHAR
STARTCHAR c140
ENCODING -1 140
SWIDTH 290 0
DWIDTH 9 0
BBX 8 17 0 0
BITMAP
06
06
02
02
00
00
07
1B
23
62
44
F8
C0
C0
C0
C6
78
ENDCHAR
STARTCHAR c141
ENCODING -1 141
SWIDTH 161 0
DWIDTH 5 0
BBX 5 17 0 0
BITMAP
18
18
08
08
00
00
30
30
30
20
60
60
60
40
C0
C0
C0
ENDCHAR
STARTCHAR c142
ENCODING -1 142
SWIDTH 322 0
DWIDTH 10 0
BBX 9 17 0 0
BITMAP
0600
0600
0200
0200
0000
0000
0F00
1180
2180
6180
4180
C180
C100
C300
C200
C400
7800
ENDCHAR
STARTCHAR c143
ENCODING -1 143
SWIDTH 354 0
DWIDTH 11 0
BBX 10 17 0 0
BITMAP
0600
0600
0200
0200
0000
0000
30C0
30C0
2080
6180
6180
6180
4300
C500
C900
D300
E300
ENDCHAR
STARTCHAR c144
ENCODING -1 144
SWIDTH 290 0
DWIDTH 9 0
BBX 9 17 0 0
BITMAP
0180
0180
0300
0400
0000
0000
0700
1B00
2300
6200
4400
F800
C000
C000
C000
C600
7800
ENDCHAR
STARTCHAR c145
ENCODING -1 145
SWIDTH 290 0
DWIDTH 9 0
BBX 9 15 0 0
BITMAP
1980
1980
0000
0000
0700
1B00
2300
6200
4400
F800
C000
C000
C000
C600
7800
ENDCHAR
STARTCHAR c146
ENCODING -1 146
SWIDTH 161 0
DWIDTH 5 0
BBX 5 15 0 0
BITMAP
48
48
00
00
30
30
30
20
60
60
60
40
C0
C0
C0
ENDCHAR
STARTCHAR c147
ENCODING -1 147
SWIDTH 258 0
DWIDTH 8 0
BBX 8 16 0 -5
BITMAP
07
18
20
60
40
C0
C0
C0
C0
C6
78
00
38
18
10
60
ENDCHAR
STARTCHAR c148
ENCODING -1 148
SWIDTH 322 0
DWIDTH 10 0
BBX 10 17 0 0
BITMAP
00C0
00C0
0180
0200
0000
0000
0F80
3980
2180
0100
0300
1F00
7300
4200
C600
CA80
F300
ENDCHAR
STARTCHAR c149
ENCODING -1 149
SWIDTH 354 0
DWIDTH 11 0
BBX 11 16 0 0
BITMAP
0620
0B40
1180
0000
0000
31C0
32C0
24C0
28C0
3080
6180
6180
6180
4100
C300
C300
ENDCHAR
STARTCHAR c155
ENCODING -1 155
SWIDTH 387 0
DWIDTH 12 0
BBX 12 1 0 4
BITMAP
FFF0
ENDCHAR
STARTCHAR c159
ENCODING -1 159
SWIDTH 354 0
DWIDTH 11 0
BBX 0 0 0 0
BITMAP
ENDCHAR
ENDFONT
